{"accessors" : [{"bufferView" : 0, "byteOffset" : 0, "componentType" : 5123, "count" : 132, "type" : "SCALAR", "max" : [113], "min" : [0]}, {"bufferView" : 1, "byteOffset" : 0, "componentType" : 5126, "count" : 114, "type" : "VEC3", "max" : [1, 1, 1], "min" : [-1, -1, -1], "name" : "POSITION"}, {"bufferView" : 1, "byteOffset" : 12, "componentType" : 5126, "count" : 114, "type" : "VEC3", "max" : [1.0000044107437134, 1.0000044107437134, 1.0000044107437134], "min" : [-1.0000044107437134, -1.0000044107437134, -1.0000044107437134], "name" : "NORMAL"}, {"bufferView" : 1, "byteOffset" : 24, "componentType" : 5126, "count" : 114, "type" : "VEC2", "max" : [0.7975000143051147, 1], "min" : [0.125, 0], "name" : "TEXCOORD_0"}, {"bufferView" : 0, "byteOffset" : 264, "componentType" : 5123, "count" : 132, "type" : "SCALAR", "max" : [113], "min" : [0]}, {"bufferView" : 2, "byteOffset" : 0, "componentType" : 5126, "count" : 114, "type" : "VEC3", "max" : [1, 1, 1], "min" : [-1, -1, -1], "name" : "POSITION"}, {"bufferView" : 2, "byteOffset" : 12, "componentType" : 5126, "count" : 114, "type" : "VEC3", "max" : [1.0000044107437134, 1.0000044107437134, 1.0000044107437134], "min" : [-1.0000044107437134, -1.0000044107437134, -1.0000044107437134], "name" : "NORMAL"}, {"bufferView" : 2, "byteOffset" : 24, "componentType" : 5126, "count" : 114, "type" : "VEC2", "max" : [0.7975000143051147, 1], "min" : [0.125, 0], "name" : "TEXCOORD_0"}, {"bufferView" : 0, "byteOffset" : 528, "componentType" : 5123, "count" : 132, "type" : "SCALAR", "max" : [113], "min" : [0]}, {"bufferView" : 3, "byteOffset" : 0, "componentType" : 5126, "count" : 114, "type" : "VEC3", "max" : [1, 1, 1], "min" : [-1, -1, -1], "name" : "POSITION"}, {"bufferView" : 3, "byteOffset" : 12, "componentType" : 5126, "count" : 114, "type" : "VEC3", "max" : [1.0000044107437134, 1.0000044107437134, 1.0000044107437134], "min" : [-1.0000044107437134, -1.0000044107437134, -1.0000044107437134], "name" : "NORMAL"}, {"bufferView" : 3, "byteOffset" : 24, "componentType" : 5126, "count" : 114, "type" : "VEC2", "max" : [0.7975000143051147, 1], "min" : [0.125, 0], "name" : "TEXCOORD_0"}, {"bufferView" : 0, "byteOffset" : 792, "componentType" : 5123, "count" : 420, "type" : "SCALAR", "max" : [356], "min" : [0]}, {"bufferView" : 4, "byteOffset" : 0, "componentType" : 5126, "count" : 357, "type" : "VEC3", "max" : [3.0277926921844482, -0.8384521007537842, 0.2748914361000061], "min" : [-5.09976053237915, -5.659629821777344, -9.072257995605469], "name" : "POSITION"}, {"bufferView" : 4, "byteOffset" : 12, "componentType" : 5126, "count" : 357, "type" : "VEC3", "max" : [0.9959723353385925, 0.9997734427452087, 1.0000044107437134], "min" : [-0.9959722757339478, -0.9997734427452087, -1.0000042915344238], "name" : "NORMAL"}, {"bufferView" : 4, "byteOffset" : 24, "componentType" : 5126, "count" : 357, "type" : "VEC2", "max" : [0.7849999666213989, 1], "min" : [0.45249998569488525, 0.008838832378387451], "name" : "TEXCOORD_0"}, {"bufferView" : 0, "byteOffset" : 1632, "componentType" : 5123, "count" : 528, "type" : "SCALAR", "max" : [455], "min" : [0]}, {"bufferView" : 5, "byteOffset" : 0, "componentType" : 5126, "count" : 456, "type" : "VEC3", "max" : [4.032867431640625, -0.5613429546356201, 1], "min" : [-5.912153720855713, -5.831533908843994, -1.0000007152557373], "name" : "POSITION"}, {"bufferView" : 5, "byteOffset" : 12, "componentType" : 5126, "count" : 456, "type" : "VEC3", "max" : [0.8313811421394348, 0.9875198006629944, 1.0000044107437134], "min" : [-0.8313813209533691, -0.9875198006629944, -1.0000044107437134], "name" : "NORMAL"}, {"bufferView" : 5, "byteOffset" : 24, "componentType" : 5126, "count" : 456, "type" : "VEC2", "max" : [0.8000000715255737, 1], "min" : [0.125, 0], "name" : "TEXCOORD_0"}, {"bufferView" : 0, "byteOffset" : 2688, "componentType" : 5123, "count" : 132, "type" : "SCALAR", "max" : [113], "min" : [0]}, {"bufferView" : 6, "byteOffset" : 0, "componentType" : 5126, "count" : 114, "type" : "VEC3", "max" : [0.2503361701965332, 0.19495436549186707, -0.37763386964797974], "min" : [-2.8107779026031494, -1.2699425220489502, -4.220290660858154], "name" : "POSITION"}, {"bufferView" : 6, "byteOffset" : 12, "componentType" : 5126, "count" : 114, "type" : "VEC3", "max" : [0.9959723353385925, 0.9997734427452087, 1.0000044107437134], "min" : [-0.9959722757339478, -0.9997734427452087, -1.0000044107437134], "name" : "NORMAL"}, {"bufferView" : 6, "byteOffset" : 24, "componentType" : 5126, "count" : 114, "type" : "VEC2", "max" : [0.7975000143051147, 1], "min" : [0.125, 0], "name" : "TEXCOORD_0"}, {"bufferView" : 0, "byteOffset" : 2952, "componentType" : 5123, "count" : 132, "type" : "SCALAR", "max" : [113], "min" : [0]}, {"bufferView" : 7, "byteOffset" : 0, "componentType" : 5126, "count" : 114, "type" : "VEC3", "max" : [0.2503361701965332, 0.19495436549186707, -0.37763386964797974], "min" : [-2.8107779026031494, -1.2699425220489502, -4.220290660858154], "name" : "POSITION"}, {"bufferView" : 7, "byteOffset" : 12, "componentType" : 5126, "count" : 114, "type" : "VEC3", "max" : [0.9959723353385925, 0.9997734427452087, 1.0000044107437134], "min" : [-0.9959722757339478, -0.9997734427452087, -1.0000044107437134], "name" : "NORMAL"}, {"bufferView" : 7, "byteOffset" : 24, "componentType" : 5126, "count" : 114, "type" : "VEC2", "max" : [0.7975000143051147, 1], "min" : [0.125, 0], "name" : "TEXCOORD_0"}, {"bufferView" : 0, "byteOffset" : 3216, "componentType" : 5123, "count" : 528, "type" : "SCALAR", "max" : [455], "min" : [0]}, {"bufferView" : 8, "byteOffset" : 0, "componentType" : 5126, "count" : 456, "type" : "VEC3", "max" : [4.032867431640625, -0.5613429546356201, 1], "min" : [-5.912153720855713, -5.831533908843994, -1.0000007152557373], "name" : "POSITION"}, {"bufferView" : 8, "byteOffset" : 12, "componentType" : 5126, "count" : 456, "type" : "VEC3", "max" : [0.8313811421394348, 0.9875198006629944, 1.0000044107437134], "min" : [-0.8313813209533691, -0.9875198006629944, -1.0000044107437134], "name" : "NORMAL"}, {"bufferView" : 8, "byteOffset" : 24, "componentType" : 5126, "count" : 456, "type" : "VEC2", "max" : [0.8000000715255737, 1], "min" : [0.125, 0], "name" : "TEXCOORD_0"}, {"bufferView" : 0, "byteOffset" : 4272, "componentType" : 5123, "count" : 420, "type" : "SCALAR", "max" : [356], "min" : [0]}, {"bufferView" : 9, "byteOffset" : 0, "componentType" : 5126, "count" : 357, "type" : "VEC3", "max" : [3.0277926921844482, -0.8384521007537842, 0.2748914361000061], "min" : [-5.09976053237915, -5.659629821777344, -9.072257995605469], "name" : "POSITION"}, {"bufferView" : 9, "byteOffset" : 12, "componentType" : 5126, "count" : 357, "type" : "VEC3", "max" : [0.9959723353385925, 0.9997734427452087, 1.0000044107437134], "min" : [-0.9959722757339478, -0.9997734427452087, -1.0000042915344238], "name" : "NORMAL"}, {"bufferView" : 9, "byteOffset" : 24, "componentType" : 5126, "count" : 357, "type" : "VEC2", "max" : [0.7849999666213989, 1], "min" : [0.45249998569488525, 0.008838832378387451], "name" : "TEXCOORD_0"}], "asset" : {"generator" : "Aspose.3D 22.1", "version" : "2.0"}, "buffers" : [{"uri" : "data:application/octet-stream;base64,", "byteLength" : 86944}], "bufferViews" : [{"buffer" : 0, "byteOffset" : 0, "byteLength" : 5112, "target" : 34963}, {"buffer" : 0, "byteOffset" : 5116, "byteLength" : 4224, "byteStride" : 32, "target" : 34962}, {"buffer" : 0, "byteOffset" : 9344, "byteLength" : 4224, "byteStride" : 32, "target" : 34962}, {"buffer" : 0, "byteOffset" : 13572, "byteLength" : 4224, "byteStride" : 32, "target" : 34962}, {"buffer" : 0, "byteOffset" : 17800, "byteLength" : 13440, "byteStride" : 32, "target" : 34962}, {"buffer" : 0, "byteOffset" : 31244, "byteLength" : 16896, "byteStride" : 32, "target" : 34962}, {"buffer" : 0, "byteOffset" : 48144, "byteLength" : 4224, "byteStride" : 32, "target" : 34962}, {"buffer" : 0, "byteOffset" : 52372, "byteLength" : 4224, "byteStride" : 32, "target" : 34962}, {"buffer" : 0, "byteOffset" : 56600, "byteLength" : 16896, "byteStride" : 32, "target" : 34962}, {"buffer" : 0, "byteOffset" : 73500, "byteLength" : 13440, "byteStride" : 32, "target" : 34962}], "materials" : [{"name" : "Material.013", "pbrMetallicRoughness" : {"baseColorFactor" : [0.5390809178352356, 0.40401527285575867, 0.2587505280971527, 1], "metallicFactor" : 0, "roughnessFactor" : 0.5}, "emissiveFactor" : [0, 0, 0], "alphaMode" : "OPAQUE", "doubleSided" : true}, {"name" : "Material.013", "pbrMetallicRoughness" : {"baseColorFactor" : [0.5390809178352356, 0.40401527285575867, 0.2587505280971527, 1], "metallicFactor" : 0, "roughnessFactor" : 0.5}, "emissiveFactor" : [0, 0, 0], "alphaMode" : "OPAQUE", "doubleSided" : true}, {"name" : "Material.013", "pbrMetallicRoughness" : {"baseColorFactor" : [0.5390809178352356, 0.40401527285575867, 0.2587505280971527, 1], "metallicFactor" : 0, "roughnessFactor" : 0.5}, "emissiveFactor" : [0, 0, 0], "alphaMode" : "OPAQUE", "doubleSided" : true}, {"name" : "Material.009", "pbrMetallicRoughness" : {"baseColorFactor" : [0.37809687852859497, 0.3764384984970093, 0.16642111539840698, 1], "metallicFactor" : 0, "roughnessFactor" : 0.5}, "emissiveFactor" : [0, 0, 0], "alphaMode" : "OPAQUE", "doubleSided" : true}, {"name" : "Material.010", "pbrMetallicRoughness" : {"baseColorFactor" : [0.03181074559688568, 0.1882350891828537, 0.030981101095676422, 1], "metallicFactor" : 0, "roughnessFactor" : 0.5}, "emissiveFactor" : [0, 0, 0], "alphaMode" : "OPAQUE", "doubleSided" : true}, {"name" : "Material.010", "pbrMetallicRoughness" : {"baseColorFactor" : [0.03181074559688568, 0.1882350891828537, 0.030981101095676422, 1], "metallicFactor" : 0, "roughnessFactor" : 0.5}, "emissiveFactor" : [0, 0, 0], "alphaMode" : "OPAQUE", "doubleSided" : true}, {"name" : "Material.011", "pbrMetallicRoughness" : {"baseColorFactor" : [0.03181074559688568, 0.1882350891828537, 0.030981101095676422, 1], "metallicFactor" : 0, "roughnessFactor" : 0.5}, "emissiveFactor" : [0, 0, 0], "alphaMode" : "OPAQUE", "doubleSided" : true}, {"name" : "Material.011", "pbrMetallicRoughness" : {"baseColorFactor" : [0.03181074559688568, 0.1882350891828537, 0.030981101095676422, 1], "metallicFactor" : 0, "roughnessFactor" : 0.5}, "emissiveFactor" : [0, 0, 0], "alphaMode" : "OPAQUE", "doubleSided" : true}, {"name" : "Material.012", "pbrMetallicRoughness" : {"baseColorFactor" : [0.37809687852859497, 0.3764384984970093, 0.16642111539840698, 1], "metallicFactor" : 0, "roughnessFactor" : 0.5}, "emissiveFactor" : [0, 0, 0], "alphaMode" : "OPAQUE", "doubleSided" : true}], "meshes" : [{"primitives" : [{"attributes" : {"POSITION" : 1, "NORMAL" : 2, "TEXCOORD_0" : 3}, "indices" : 0, "material" : 0, "mode" : 4}]}, {"primitives" : [{"attributes" : {"POSITION" : 5, "NORMAL" : 6, "TEXCOORD_0" : 7}, "indices" : 4, "material" : 1, "mode" : 4}]}, {"primitives" : [{"attributes" : {"POSITION" : 9, "NORMAL" : 10, "TEXCOORD_0" : 11}, "indices" : 8, "material" : 2, "mode" : 4}]}, {"primitives" : [{"attributes" : {"POSITION" : 13, "NORMAL" : 14, "TEXCOORD_0" : 15}, "indices" : 12, "material" : 3, "mode" : 4}]}, {"primitives" : [{"attributes" : {"POSITION" : 17, "NORMAL" : 18, "TEXCOORD_0" : 19}, "indices" : 16, "material" : 4, "mode" : 4}]}, {"primitives" : [{"attributes" : {"POSITION" : 21, "NORMAL" : 22, "TEXCOORD_0" : 23}, "indices" : 20, "material" : 5, "mode" : 4}]}, {"primitives" : [{"attributes" : {"POSITION" : 25, "NORMAL" : 26, "TEXCOORD_0" : 27}, "indices" : 24, "material" : 6, "mode" : 4}]}, {"primitives" : [{"attributes" : {"POSITION" : 29, "NORMAL" : 30, "TEXCOORD_0" : 31}, "indices" : 28, "material" : 7, "mode" : 4}]}, {"primitives" : [{"attributes" : {"POSITION" : 33, "NORMAL" : 34, "TEXCOORD_0" : 35}, "indices" : 32, "material" : 8, "mode" : 4}]}], "nodes" : [{"matrix" : [1, 0, 0, 0, 0, 0.762054979801178, 0, 0, 0, 0, 1, 0, -1.7797527313232422, 2.885143756866455, -2.0814719200134277, 1], "mesh" : 0, "name" : "Cube.001"}, {"matrix" : [0.39384880661964417, 0, 0, 0, 0, 0.23708553320380027, 0.09261100645249311, 0, 0, -0.23830910757182977, 0.6100748064429233, 0, -0.7773997783660889, 2.938383102416992, -1.50716233253479, 1], "mesh" : 1, "name" : "Cube.002"}, {"matrix" : [0.628625214099884, 0, 0, 0, 0, 0.42430922389030457, 0, 0, 0, 0, 0.6814456582069397, 0, -0.5970777273178101, 2.8397486209869385, -2.337671995162964, 1], "mesh" : 2, "name" : "Cube.003"}, {"matrix" : [0.04936060754071838, -5.447143332305079E-10, -0.017833595929221895, 0, 0.03650605316741248, 8.176084461484117E-10, 0.10104305112361615, 0, -2.9968224742607515E-10, -0.028874477099355724, 3.2469417566792883E-10, 0, -1.5571799278259277, 3.6685214042663574, -1.7527146339416504, 1], "mesh" : 3, "name" : "Cube.006"}, {"matrix" : [0.04936060754071838, -5.447143332305079E-10, -0.017833595929221895, 0, 0.03650605316741248, 8.176084461484117E-10, 0.10104305112361615, 0, -2.9968224742607515E-10, -0.028874477099355724, 3.2469417566792883E-10, 0, -1.5571799278259277, 3.6685214042663574, -1.7527146339416504, 1], "mesh" : 4, "name" : "Cube.007"}, {"matrix" : [0.04936060754071838, -5.447143332305079E-10, -0.017833595929221895, 0, 0.03650605316741248, 8.176084461484117E-10, 0.10104305112361615, 0, -2.9968224742607515E-10, -0.028874477099355724, 3.2469417566792883E-10, 0, -1.5571799278259277, 3.6685214042663574, -1.7527146339416504, 1], "mesh" : 5, "name" : "Cube.009"}, {"matrix" : [0.014057243910968754, -0.010974133978955717, 0.04936060901617737, 0, -0.07964661407584989, 0.06217807870094625, 0.03650610156281824, 0, -0.017768270199300728, -0.022760147538823328, -1.7944212272459543E-09, 0, -1.3639647960662842, 3.640993356704712, -2.0210318565368652, 1], "mesh" : 6, "name" : "Cube.010"}, {"matrix" : [0.014057243910968754, -0.010974133978955717, 0.04936060901617737, 0, -0.07964661407584989, 0.06217807870094625, 0.03650610156281824, 0, -0.017768270199300728, -0.022760147538823328, -1.7944212272459543E-09, 0, -1.3639647960662842, 3.640993356704712, -2.0210318565368652, 1], "mesh" : 7, "name" : "Cube.011"}, {"matrix" : [0.014057243910968754, -0.010974133978955717, 0.04936060901617737, 0, -0.07964661407584989, 0.06217807870094625, 0.03650610156281824, 0, -0.017768270199300728, -0.022760147538823328, -1.7944212272459543E-09, 0, -1.3639647960662842, 3.640993356704712, -2.0210318565368652, 1], "mesh" : 8, "name" : "Cube.012"}], "scene" : 0, "scenes" : [{"nodes" : [0, 1, 2, 3, 4, 5, 6, 7, 8]}]}